<?xml version="1.0" encoding="utf-8"?>
<!-- Generator: Adobe Illustrator 19.0.0, SVG Export Plug-In . SVG Version: 6.00 Build 0)  -->
<svg version="1.1" xmlns="http://www.w3.org/2000/svg" xmlns:xlink="http://www.w3.org/1999/xlink" x="0px" y="0px"
	 viewBox="0 0 150 150" style="enable-background:new 0 0 150 150;" xml:space="preserve">
<style type="text/css">
	.st0{fill:#921E1E;}
	.st1{fill:#33ACD0;stroke:#000000;stroke-miterlimit:10;}
	.st2{fill:#40BEDB;}
	.st3{fill:#FFFFFF;}
	.st4{font-family:'MyriadPro-Regular';}
	.st5{font-size:21.6403px;}
</style>
<g id="fundo">
	<rect id="XMLID_6_" class="st0" width="150" height="150"/>
</g>
<g id="Camada_1">
	<path id="XMLID_13_" class="st1" d="M27.7,99.8C29,85.5,37.1,76.5,52,72.6h53.6c10.3,5.6,14.6,15.6,16.8,27.2
		C122.3,123.6,27.7,125.6,27.7,99.8z"/>
	<ellipse id="XMLID_12_" class="st1" cx="75" cy="45.2" rx="42.2" ry="43.1"/>
	<ellipse id="XMLID_11_" class="st2" cx="66.3" cy="21.1" rx="11.5" ry="11.4"/>
	<path id="XMLID_10_" class="st2" d="M45.9,34.2c-10.8,13.1-9.6,31.4,4.9,39.3c9.2,5.2,20.6,0,14.2-2.9
		c-15.5-9.7-17.7-22.7-9.6-33.4C58.4,32.5,49.9,29.5,45.9,34.2z"/>
	<path id="XMLID_9_" class="st2" d="M46.1,79.2c-9.8,6.9-15.1,13.7-15.9,20.6c-0.4,5.5,7.4,12.2,9.6,5.8c1-8.6,5.2-13.3,8.5-16
		C54.8,85.7,49.4,77.8,46.1,79.2z"/>
	<text id="XMLID_7_" transform="matrix(1 0 0 1 30.0866 141.9232)" class="st3 st4 st5">Sobre nós</text>
</g>
</svg>
