<?xml version="1.0" encoding="utf-8"?>
<!-- Generator: Adobe Illustrator 19.0.0, SVG Export Plug-In . SVG Version: 6.00 Build 0)  -->
<svg version="1.1" id="Camada_1" xmlns="http://www.w3.org/2000/svg" xmlns:xlink="http://www.w3.org/1999/xlink" x="0px" y="0px"
	 viewBox="-230 322 150 150" style="enable-background:new -230 322 150 150;" xml:space="preserve">
<style type="text/css">
	.st0{fill:#921E1E;}
	.st1{display:none;}
	.st2{display:inline;fill:#33ACD0;stroke:#000000;stroke-miterlimit:10;}
	.st3{display:inline;fill:#40BEDB;}
	.st4{display:inline;fill:#FFFFFF;}
	.st5{font-family:'MyriadPro-Regular';}
	.st6{font-size:21.6403px;}
	.st7{display:inline;fill:#7A1315;stroke:#000000;stroke-miterlimit:10;}
	.st8{display:inline;fill:#891B21;}
	.st9{display:inline;fill:#9A9999;stroke:#000000;stroke-miterlimit:10;}
	.st10{display:inline;fill:#55ACB6;stroke:#000000;stroke-miterlimit:10;}
	.st11{display:inline;}
	.st12{display:inline;fill:#40B549;}
	.st13{fill:#5B5B5B;stroke:#111111;stroke-width:0.5;stroke-miterlimit:10;}
	.st14{fill:#FFFFFF;}
</style>
<g id="fundo">
	<rect id="XMLID_6_" x="-230" y="322" class="st0" width="150" height="150"/>
</g>
<g id="sobre_nís" class="st1">
	<path id="XMLID_13_" class="st2" d="M-202.3,421.8c1.3-14.3,9.4-23.3,24.3-27.2h53.6c10.3,5.6,14.6,15.6,16.8,27.2
		C-107.7,445.6-202.3,447.6-202.3,421.8z"/>
	<ellipse id="XMLID_12_" class="st2" cx="-155" cy="367.2" rx="42.2" ry="43.1"/>
	<ellipse id="XMLID_11_" class="st3" cx="-163.7" cy="343.1" rx="11.5" ry="11.4"/>
	<path id="XMLID_10_" class="st3" d="M-184.1,356.2c-10.8,13.1-9.6,31.4,4.9,39.3c9.2,5.2,20.6,0,14.2-2.9
		c-15.5-9.7-17.7-22.7-9.6-33.4C-171.6,354.5-180.1,351.5-184.1,356.2z"/>
	<path id="XMLID_9_" class="st3" d="M-183.9,401.2c-9.8,6.9-15.1,13.7-15.9,20.6c-0.4,5.5,7.4,12.2,9.6,5.8c1-8.6,5.2-13.3,8.5-16
		C-175.2,407.7-180.6,399.8-183.9,401.2z"/>
	<text id="XMLID_7_" transform="matrix(1 0 0 1 -199.9134 463.9232)" class="st4 st5 st6">Sobre nós</text>
</g>
<g id="Contato" class="st1">
	<path id="XMLID_2_" class="st7" d="M-203.5,383.5c6.4-18.5,21.6-35,43.6-49.9h49.9l9.2,9.2c-6.5,20-16.5,30.5-29.7,32.6l-7.7-5.4
		c-12.1,7.3-21.7,15.9-23.5,28.6l8.8,6.2c-3.1,23.2-14.6,34.8-30.4,35.6l-12.1-8.4L-203.5,383.5z"/>
	<path id="XMLID_3_" class="st8" d="M-198,382.8c9.7-16.1,21.8-31.3,41.4-43.6h17.2c-25.6,16.4-43.5,37.5-56.1,62L-198,382.8z"/>
	<text id="XMLID_1_" transform="matrix(1 0 0 1 -191.5388 463.923)" class="st4 st5 st6">Contato</text>
</g>
<g id="Produtos" class="st1">
	<path id="XMLID_4_" class="st9" d="M-111.8,426.3h-80.6c-6.6,0-12-5.4-12-12v-68.6c0-6.6,5.4-12,12-12h80.6c6.6,0,12,5.4,12,12
		v68.7C-99.8,420.9-105.2,426.3-111.8,426.3z"/>
	<rect id="XMLID_5_" x="-193.7" y="432.7" class="st9" width="83.3" height="12.7"/>
	<rect id="XMLID_8_" x="-166.3" y="426.3" class="st9" width="22.7" height="10"/>
	<rect id="XMLID_14_" x="-193.7" y="343.3" class="st10" width="81.3" height="73.3"/>
	<text id="XMLID_15_" transform="matrix(1 0 0 1 -196.1052 463.9232)" class="st4 st5 st6">Produtos</text>
</g>
<g id="cadastrar" class="st1">
	<text id="XMLID_18_" transform="matrix(1 0 0 1 -197.966 463.9232)" class="st4 st5 st6">Cadastrar</text>
	<path id="XMLID_20_" class="st11" d="M-147.7,439.5h-11.1c-6.6,0-12-5.4-12-12v-81.2c0-6.6,5.4-12,12-12h11.1c6.6,0,12,5.4,12,12
		v81.2C-135.7,434.1-141.1,439.5-147.7,439.5z"/>
	<path id="XMLID_19_" class="st11" d="M-100.7,381.4v11.1c0,6.6-5.4,12-12,12h-81.1c-6.6,0-12-5.4-12-12v-11.1c0-6.6,5.4-12,12-12
		h81.2C-106.1,369.4-100.7,374.8-100.7,381.4z"/>
	<path id="XMLID_17_" class="st12" d="M-100.7,381.4v11.1c0,6.6-5.4,12-12,12h-81.1c-6.6,0-12-5.4-12-12v-11.1c0-6.6,5.4-12,12-12
		h81.2C-106.1,369.4-100.7,374.8-100.7,381.4z"/>
	<path id="XMLID_16_" class="st12" d="M-147.7,439.5h-11.1c-6.6,0-12-5.4-12-12v-81.2c0-6.6,5.4-12,12-12h11.1c6.6,0,12,5.4,12,12
		v81.2C-135.7,434.1-141.1,439.5-147.7,439.5z"/>
</g>
<g id="Alterar">
	
		<rect x="-168.3" y="372.9" transform="matrix(0.661 0.7504 -0.7504 0.661 243.1118 252.3432)" class="st13" width="21.1" height="44.6"/>
	<text id="XMLID_25_" transform="matrix(1 0 0 1 -185.4694 465.9236)" class="st14 st5 st6">Alterar</text>
	<path class="st13" d="M-191.1,439.1l7.9-7c4.5-4,5-11,1-15.5c-4-4.5-11-5-15.5-1l-9.1,8c-2.2-8,0.1-17,6.9-22.9
		c9.3-8.2,23.5-7.4,31.6,1.9c8.2,9.3,7.2,23.4-2.1,31.6C-176.3,439.4-184.1,441-191.1,439.1z"/>
	<path class="st13" d="M-107.4,364.9l-7.9,7c-4.5,4-11.5,3.6-15.5-1c-4-4.5-3.6-11.5,1-15.5l9.1-8c-7.7-3.2-16.9-2-23.6,3.9
		c-9.3,8.2-10.3,22.4-2.1,31.6c8.2,9.3,22.3,10.1,31.6,1.9C-109,379.6-106.5,372.1-107.4,364.9z"/>
</g>
</svg>
