<?xml version="1.0" encoding="utf-8"?>
<!-- Generator: Adobe Illustrator 19.0.0, SVG Export Plug-In . SVG Version: 6.00 Build 0)  -->
<svg version="1.1" id="Camada_1" xmlns="http://www.w3.org/2000/svg" xmlns:xlink="http://www.w3.org/1999/xlink" x="0px" y="0px"
	 viewBox="45 26 150 150" style="enable-background:new 45 26 150 150;" xml:space="preserve">
<style type="text/css">
	.st0{fill:#921E1E;}
	.st1{display:none;}
	.st2{display:inline;fill:#33ACD0;stroke:#000000;stroke-miterlimit:10;}
	.st3{display:inline;fill:#40BEDB;}
	.st4{display:inline;fill:#FFFFFF;}
	.st5{font-family:'MyriadPro-Regular';}
	.st6{font-size:21.6403px;}
	.st7{display:inline;fill:#7A1315;stroke:#000000;stroke-miterlimit:10;}
	.st8{display:inline;fill:#891B21;}
	.st9{display:inline;fill:#9A9999;stroke:#000000;stroke-miterlimit:10;}
	.st10{display:inline;fill:#55ACB6;stroke:#000000;stroke-miterlimit:10;}
	.st11{fill:#FFFFFF;}
	.st12{fill:#C6C6C6;}
	.st13{fill:#303030;}
</style>
<g id="fundo">
	<rect id="XMLID_6_" x="45" y="26" class="st0" width="150" height="150"/>
</g>
<g id="sobre_nís" class="st1">
	<path id="XMLID_13_" class="st2" d="M72.7,125.8c1.3-14.3,9.4-23.3,24.3-27.2h53.6c10.3,5.6,14.6,15.6,16.8,27.2
		C167.3,149.6,72.7,151.6,72.7,125.8z"/>
	<ellipse id="XMLID_12_" class="st2" cx="120" cy="71.2" rx="42.2" ry="43.1"/>
	<ellipse id="XMLID_11_" class="st3" cx="111.3" cy="47.1" rx="11.5" ry="11.4"/>
	<path id="XMLID_10_" class="st3" d="M90.9,60.2c-10.8,13.1-9.6,31.4,4.9,39.3c9.2,5.2,20.6,0,14.2-2.9
		c-15.5-9.7-17.7-22.7-9.6-33.4C103.4,58.5,94.9,55.5,90.9,60.2z"/>
	<path id="XMLID_9_" class="st3" d="M91.1,105.2c-9.8,6.9-15.1,13.7-15.9,20.6c-0.4,5.5,7.4,12.2,9.6,5.8c1-8.6,5.2-13.3,8.5-16
		C99.8,111.7,94.4,103.8,91.1,105.2z"/>
	<text id="XMLID_7_" transform="matrix(1 0 0 1 75.0866 167.9232)" class="st4 st5 st6">Sobre nós</text>
</g>
<g id="Contato" class="st1">
	<path id="XMLID_2_" class="st7" d="M71.5,87.5c6.4-18.5,21.6-35,43.6-49.9H165l9.2,9.2c-6.5,20-16.5,30.5-29.7,32.6l-7.7-5.4
		c-12.1,7.3-21.7,15.9-23.5,28.6l8.8,6.2c-3.1,23.2-14.6,34.8-30.4,35.6L79.6,136L71.5,87.5z"/>
	<path id="XMLID_3_" class="st8" d="M77,86.8c9.7-16.1,21.8-31.3,41.4-43.6h17.2c-25.6,16.4-43.5,37.5-56.1,62L77,86.8z"/>
	<text id="XMLID_1_" transform="matrix(1 0 0 1 83.4612 167.923)" class="st4 st5 st6">Contato</text>
</g>
<g id="Produtos" class="st1">
	<path id="XMLID_4_" class="st9" d="M163.2,130.3H82.6c-6.6,0-12-5.4-12-12V49.7c0-6.6,5.4-12,12-12h80.6c6.6,0,12,5.4,12,12v68.7
		C175.2,124.9,169.8,130.3,163.2,130.3z"/>
	<rect id="XMLID_5_" x="81.3" y="136.7" class="st9" width="83.3" height="12.7"/>
	<rect id="XMLID_8_" x="108.7" y="130.3" class="st9" width="22.7" height="10"/>
	<rect id="XMLID_14_" x="81.3" y="47.3" class="st10" width="81.3" height="73.3"/>
	<text id="XMLID_15_" transform="matrix(1 0 0 1 78.8948 167.9232)" class="st4 st5 st6">Produtos</text>
</g>
<text id="XMLID_18_" transform="matrix(1 0 0 1 68.034 167.9232)" class="st11 st5 st6">Vendedores</text>
<g id="Zoio">
	<ellipse class="st12" cx="148.2" cy="79.5" rx="23.6" ry="38.7"/>
	<ellipse class="st13" cx="157.6" cy="89.7" rx="9.4" ry="13.1"/>
	<path class="st11" d="M147.6,45.3c-7.1,1.3-12.3,6.3-15.6,14.9c-1.9,3.8,0.2,12.2,3.1,8.3l11.5-14C152,48.8,151,45.2,147.6,45.3z"
		/>
	<path class="st11" d="M146.9,57.8c-2.4,1.7-4.5,3.7-5.4,6.5c-0.7,2,0.2,4.3,2.4,1.9l3.8-5C149.5,59.1,148.5,56.9,146.9,57.8z"/>
	<ellipse class="st12" cx="100.1" cy="88.4" rx="24.9" ry="40.9"/>
	<ellipse class="st13" cx="110.1" cy="99.1" rx="9.9" ry="13.9"/>
	<path class="st11" d="M99.5,52.3C92,53.7,86.5,58.9,83,68c-2,4,0.3,12.9,3.3,8.8L98.4,62C104.1,56,103,52.1,99.5,52.3z"/>
	<path class="st11" d="M98.8,65.4c-2.6,1.8-4.7,3.9-5.7,6.8c-0.7,2.1,0.3,4.5,2.5,2l4-5.3C101.5,66.8,100.4,64.5,98.8,65.4z"/>
</g>
</svg>
